<?xml version="1.0" standalone="no"?><!DOCTYPE svg PUBLIC "-//W3C//DTD SVG 1.1//EN" "http://www.w3.org/Graphics/SVG/1.1/DTD/svg11.dtd"><svg t="1561697713578" class="icon" viewBox="0 0 1024 1024" version="1.1" xmlns="http://www.w3.org/2000/svg" p-id="5881" xmlns:xlink="http://www.w3.org/1999/xlink" width="200" height="200"><defs><style type="text/css"></style></defs><path d="M161.435 576A356.48 356.48 0 0 1 160 544c0-194.404 157.596-352 352-352s352 157.596 352 352c0 10.787-0.485 21.46-1.435 32H992v64H32v-64h129.435zM480 64h64v96h-64V64z m244.287 48.308l55.426 32-48 83.138-55.426-32 48-83.138z m187.405 163.98l32 55.425-83.138 48-32-55.426 83.138-48zM192 800v-64h640v64H192z m128 160v-64h384v64H320zM80.308 331.713l32-55.426 83.138 48-32 55.426-83.138-48z m163.98-187.405l55.425-32 48 83.138-55.426 32-48-83.138zM798.247 576A291.908 291.908 0 0 0 800 544c0-159.058-128.942-288-288-288S224 384.942 224 544c0 10.766 0.588 21.443 1.752 32h572.496z" p-id="5882" fill="#CECFD3"></path></svg>