<?xml version="1.0" standalone="no"?><!DOCTYPE svg PUBLIC "-//W3C//DTD SVG 1.1//EN" "http://www.w3.org/Graphics/SVG/1.1/DTD/svg11.dtd"><svg t="1561697763185" class="icon" viewBox="0 0 1024 1024" version="1.1" xmlns="http://www.w3.org/2000/svg" p-id="6073" xmlns:xlink="http://www.w3.org/1999/xlink" width="200" height="200"><defs><style type="text/css"></style></defs><path d="M414.092 74.73C394.714 120.619 384 171.059 384 224c0 212.077 171.923 384 384 384 68.984 0 133.72-18.19 189.67-50.036C934.657 783.794 743.906 960 512 960 264.576 960 64 759.424 64 512c0-213.793 149.757-392.61 350.092-437.27zM128 512c0 212.077 171.923 384 384 384 158.255 0 295.523-96.206 353.971-234.758C834.127 668.349 801.316 672 768 672c-247.424 0-448-200.576-448-448 0-15.469 0.787-30.835 2.343-46.054C205.236 244.534 128 370.433 128 512z" p-id="6074" fill="#4C4C4C"></path></svg>