<?xml version="1.0" encoding="UTF-8"?>
<svg width="203px" height="172px" viewBox="0 0 203 172" version="1.1" xmlns="http://www.w3.org/2000/svg" xmlns:xlink="http://www.w3.org/1999/xlink">
    <!-- Generator: Sketch 55.2 (78181) - https://sketchapp.com -->
    <title>空状态/未打卡、没有图片</title>
    <desc>Created with Sketch.</desc>
    <defs>
        <linearGradient x1="0.0273372224%" y1="50.0106023%" x2="99.9806791%" y2="50.0106023%" id="linearGradient-1">
            <stop stop-color="#D4EBFF" offset="0%"></stop>
            <stop stop-color="#FFFFFF" offset="100%"></stop>
        </linearGradient>
        <linearGradient x1="50%" y1="0%" x2="50%" y2="100%" id="linearGradient-2">
            <stop stop-color="#D4EBFF" offset="0%"></stop>
            <stop stop-color="#FFFFFF" offset="100%"></stop>
        </linearGradient>
        <linearGradient x1="49.9999957%" y1="-0.00227712002%" x2="49.9999957%" y2="132.853434%" id="linearGradient-3">
            <stop stop-color="#AAD5FF" offset="0%"></stop>
            <stop stop-color="#F6FBFF" offset="100%"></stop>
        </linearGradient>
        <linearGradient x1="50%" y1="-26.7918322%" x2="50%" y2="191.790248%" id="linearGradient-4">
            <stop stop-color="#AAD5FF" offset="0%"></stop>
            <stop stop-color="#F3FAFF" offset="100%"></stop>
        </linearGradient>
        <linearGradient x1="-0.0543966626%" y1="49.8168405%" x2="99.9754675%" y2="49.8168405%" id="linearGradient-5">
            <stop stop-color="#D4EBFF" offset="0%"></stop>
            <stop stop-color="#FFFFFF" offset="100%"></stop>
        </linearGradient>
        <linearGradient x1="0.0218699584%" y1="49.9820552%" x2="99.8978937%" y2="49.9820552%" id="linearGradient-6">
            <stop stop-color="#D4EBFF" offset="0%"></stop>
            <stop stop-color="#FFFFFF" offset="100%"></stop>
        </linearGradient>
        <linearGradient x1="50%" y1="3.67680588e-13%" x2="50%" y2="99.9676585%" id="linearGradient-7">
            <stop stop-color="#AAD5FF" offset="0%"></stop>
            <stop stop-color="#ABD5FF" stop-opacity="0.8" offset="2%"></stop>
            <stop stop-color="#C8EAFF" stop-opacity="0.2" offset="100%"></stop>
        </linearGradient>
    </defs>
    <g id="空状态/未打卡、没有图片" stroke="none" stroke-width="1" fill="none" fill-rule="evenodd">
        <g id="画板-1-副本" fill-rule="nonzero">
            <g>
                <path d="M179.837515,13.6909091 C179.506715,13.6924108 179.176326,13.7142707 178.848233,13.7563636 C176.829392,9.76255123 172.662046,7.30409072 168.175871,7.46037052 C163.689695,7.61665032 159.704937,10.3590964 157.971107,14.4836364 C157.444664,14.3783943 156.909133,14.3248048 156.372194,14.3236364 C152.800473,14.3191334 149.660743,16.6793842 148.685416,20.102071 C147.710089,23.5247578 149.136733,27.1761918 152.178166,29.0416179 C155.2196,30.9070439 159.134999,30.5320866 161.763961,28.1236364 C165.784511,31.0921561 171.274202,31.1171867 175.321864,28.1854545 C178.150063,30.1235081 181.905603,30.0426803 184.64713,27.9847537 C187.388657,25.926827 188.501773,22.3529998 187.411074,19.1106925 C186.320374,15.8683852 183.270295,13.6842257 179.837515,13.6872727 L179.837515,13.6909091 Z" id="路径" fill="url(#linearGradient-1)"></path>
                <path d="M58.7669903,57.6363636 L143.104854,57.6363636 C156.911973,57.6363636 168.104854,68.8292449 168.104854,82.6363636 L168.104854,128.272727 C168.104854,142.079846 156.911973,153.272727 143.104854,153.272727 L58.7669903,153.272727 C44.9598715,153.272727 33.7669903,142.079846 33.7669903,128.272727 L33.7669903,82.6363636 C33.7669903,68.8292449 44.9598715,57.6363636 58.7669903,57.6363636 Z" id="矩形" fill="url(#linearGradient-2)"></path>
                <path d="M168.104867,103.589091 C159.64668,99.5636364 150.122563,97.8181818 140.430524,101.454545 C127.909359,106.134545 111.715806,113.912727 97.0737087,121.407273 C119.261359,131.396364 145.311223,145.56 156.78835,151.923636 C163.639834,149.119823 168.110879,142.46937 168.104867,135.090909 L168.104867,103.589091 Z" id="路径" fill="url(#linearGradient-3)"></path>
                <path d="M97.0737087,121.392727 C91.4775146,118.872727 86.1222524,116.618182 81.3218641,114.821818 C62.7481942,107.883636 44.7951068,120.64 33.7669903,131.410909 L33.7669903,135.090909 C33.7669903,145.13245 41.9388803,153.272732 52.0194175,153.272732 L149.852427,153.272732 C152.231688,153.274496 154.588178,152.811198 156.78835,151.909091 C145.311223,145.545455 119.261359,131.381818 97.0737087,121.392727 Z" id="路径" fill="url(#linearGradient-4)"></path>
                <path d="M63.6425631,68.52 C63.6425631,68.52 66.1540971,67.72 66.9864078,66.7272727 C66.9864078,66.7272727 66.2271068,63.7236364 66.9864078,61.2727273 C67.4755728,59.6872727 68.8116505,59.0909091 70.2718447,59.0909091 C70.2718447,59.0909091 68.8116505,60.1818182 70.2718447,62.7272727 C71.4180971,64.7236364 74.6524272,67.0909091 74.6524272,67.0909091 L73.7398058,68.52 C74.7856533,67.9936774 75.7123948,67.2598547 76.463068,66.3636364 C76.463068,66.3636364 74.9773204,63.7163636 75.7329709,60.9090909 C76.072466,59.6436364 78.7957282,59.2909091 79.7485049,58.3636364 C79.964088,58.1552922 80.1386608,57.9086291 80.2632233,57.6363636 L62.7372427,57.6363636 C62.1722,58.5019795 61.872809,59.5129381 61.875707,60.5454545 C61.875707,62 64.2704466,64.7236364 65.5262136,66.3636364 L63.6425631,68.52 Z" id="路径" fill="#AAD5FF"></path>
                <ellipse id="椭圆形" fill="#FFFFFF" opacity="0.75" cx="72.5716505" cy="84.1018182" rx="10.2104078" ry="10.1709091"></ellipse>
                <path d="M24.191767,116.647273 C24.0355015,116.648998 23.8794752,116.659926 23.7245049,116.68 C22.7653482,114.791042 20.7902719,113.630888 18.6666527,113.709034 C16.5430334,113.78718 14.6592711,115.089332 13.8426408,117.043636 C13.5940719,116.992311 13.3408425,116.966721 13.0869903,116.967273 C11.3999205,116.971929 9.92039103,118.090175 9.46159772,119.70739 C9.00280442,121.324604 9.67594182,123.048833 11.1110325,123.932386 C12.5461232,124.815939 14.3953542,124.644675 15.6423301,123.512727 C17.5441868,124.917606 20.1416123,124.929387 22.056233,123.541818 C23.3952838,124.458464 25.1726982,124.419703 26.4701949,123.445561 C27.7676915,122.471419 28.2946986,120.780054 27.7789437,119.245289 C27.2631888,117.710525 25.8201742,116.67607 24.1954175,116.676364 L24.191767,116.647273 Z" id="路径" fill="url(#linearGradient-5)"></path>
                <path d="M19.1431456,39.9418182 C18.9429266,39.9422192 18.7429454,39.9555807 18.544466,39.9818182 C17.3252121,37.5763392 14.8132361,36.096486 12.1097314,36.1909925 C9.40622663,36.2854991 7.00456963,37.9371184 5.95759223,40.4218182 C5.64024101,40.3588863 5.31744257,40.3272185 4.99386408,40.3272727 C2.84045981,40.3251356 0.947868114,41.7485922 0.360297924,43.8122718 C-0.227272265,45.8759515 0.633285785,48.0772309 2.46717215,49.2015874 C4.30105851,50.3259438 6.66161763,50.0995326 8.2464466,48.6472727 C10.6701557,50.4374679 13.9802183,50.4521944 16.4198835,48.6836364 C18.1235044,49.8639674 20.3948877,49.8232402 22.0547613,48.5825996 C23.714635,47.3419591 24.3889468,45.1809833 23.7276032,43.2216222 C23.0662595,41.2622611 21.2182939,39.9460562 19.1431456,39.9563636 L19.1431456,39.9418182 Z" id="路径" fill="url(#linearGradient-6)"></path>
                <ellipse id="椭圆形" fill="url(#linearGradient-7)" opacity="0.53" cx="101.052738" cy="166.018182" rx="49.2742524" ry="5.62181818"></ellipse>
                <path d="M125.759223,95.4727273 L125.759223,94 L125.394175,94 L125.394175,95.4545455 C125.514872,95.4327251 125.638526,95.4327251 125.759223,95.4545455 L125.759223,95.4727273 Z" id="路径" fill="#8CC0F4"></path>
                <path d="M125.759223,95.4727273 C125.638526,95.4509069 125.514872,95.4509069 125.394175,95.4727273 C124.767989,95.5445738 124.239342,95.9692529 124.036194,96.5636364 L125.310214,96.5636364 C125.600538,96.1286808 126.082247,95.8583451 126.606136,95.8363636 C126.364806,95.6365526 126.070756,95.5102973 125.759223,95.4727273 Z" id="路径" fill="#8CC0F4"></path>
                <path d="M125.310214,96.5454545 L127.135456,96.5454545 C127.032592,96.2604193 126.853316,96.008895 126.617087,95.8181818 C126.089279,95.8367139 125.602772,96.1074538 125.310214,96.5454545 L125.310214,96.5454545 Z" id="路径" fill="#6AB0EA"></path>
                <polygon id="路径" fill="#6AB0EA" points="125.868738 109.807273 125.525592 110.021818 127.847301 111.450909 127.799845 110.992727"></polygon>
                <polygon id="路径" fill="#6AB0EA" points="125.485437 104.8 126.985786 105.741818 125.485437 106.683636 125.828583 106.898182 127.285126 105.981818 127.234019 105.465455 125.828583 104.585455"></polygon>
                <polygon id="路径" fill="#6AB0EA" points="125.485437 101.094545 126.456466 101.658182 125.485437 102.269091 125.828583 102.483636 126.86167 101.832727 126.821515 101.450909 125.846835 100.883636"></polygon>
                <polygon id="路径" fill="#6AB0EA" points="124.386641 100.458182 125.124039 100.883636 125.485437 100.676364 124.437748 100.065455"></polygon>
                <polygon id="路径" fill="#6AB0EA" points="128.592 111.48 128.581049 111.476364 128.584699 111.494545"></polygon>
                <polygon id="路径" fill="#6AB0EA" points="123.335301 108.676364 125.178796 109.810909 125.521942 109.592727 123.506874 108.356364 125.485437 107.112727 125.142291 106.898182 123.426563 107.974545"></polygon>
                <polygon id="路径" fill="#6AB0EA" points="123.955883 103.836364 125.142291 104.585455 125.485437 104.367273 124.15666 103.534545 125.485437 102.698182 125.142291 102.483636 124.039845 103.174545"></polygon>
                <polygon id="路径" fill="#8CC0F4" points="127.566214 108.727273 127.485903 107.938182 125.828583 106.898182 125.485437 106.683636 123.985087 105.741818 125.485437 104.8 125.828583 104.585455 127.062447 103.807273 127.004039 103.221818 125.828583 102.483636 125.485437 102.269091 124.514408 101.658182 125.485437 101.094545 125.846835 100.883636 126.712 100.381818 126.671845 99.9854545 125.485437 100.676364 125.124039 100.883636 124.269825 101.381818 124.204117 101.894545 125.142291 102.483636 125.485437 102.698182 126.814214 103.534545 125.485437 104.367273 125.142291 104.585455 123.747806 105.458182 123.682097 105.978182 125.142291 106.898182 125.485437 107.112727 127.46765 108.356364 125.521942 109.592727 125.178796 109.810909 123.017709 111.185455 122.95565 111.654545 125.525592 110.021818 125.868738 109.807273"></polygon>
                <polygon id="路径" fill="#8CC0F4" points="123.335301 108.676364 123.426563 107.974545 123.682097 105.978182 123.747806 105.458182 123.955883 103.836364 124.039845 103.174545 124.204117 101.894545 124.269825 101.381818 124.386641 100.458182 124.437748 100.065455 124.518058 99.4545455 123.806214 99.4545455 123.787961 99.4 122.112388 112.498182 122.835184 112.592727 122.95565 111.654545 123.017709 111.185455"></polygon>
                <polygon id="路径" fill="#6AB0EA" points="128.584699 111.494545 128.581049 111.476364 127.350835 99.4436364 127.347184 99.4545455 126.617087 99.4545455 126.671845 99.9854545 126.712 100.381818 126.821515 101.450909 126.86167 101.832727 127.004039 103.221818 127.062447 103.807273 127.234019 105.465455 127.285126 105.981818 127.485903 107.938182 127.566214 108.727273 127.799845 110.992727 127.847301 111.450909 127.960466 112.581818 128.686913 112.509091"></polygon>
                <polygon id="路径" fill="#8CC0F4" points="124.518058 99.4545455 125.759223 99.4545455 126.894524 96.5454545 125.310214 96.5454545 124.036194 96.5454545 122.838835 96.5454545 123.787961 99.4 123.806214 99.4545455"></polygon>
                <polygon id="路径" fill="#6AB0EA" points="125.759223 99.4545455 126.617087 99.4545455 127.347184 99.4545455 127.350835 99.4436364 128.314563 96.5454545 127.124505 96.5454545 126.894524 96.5454545"></polygon>
                <polygon id="路径" fill="#6AB0EA" points="125.759223 94 127.219417 95.0909091 125.759223 95.0909091"></polygon>
                <path d="M58.9772427,40.8290909 C58.9772427,40.8290909 57.8820971,39.7381818 55.6918058,39.7381818 C53.5015146,39.7381818 55.3267573,40.8290909 56.0568544,40.8290909 C56.8110514,40.8627441 57.4973715,41.2729432 57.8820971,41.92 C58.2617476,42.5454545 58.9772427,40.8290909 58.9772427,40.8290909 Z" id="路径" fill="#FFD8B1"></path>
                <path d="M65.927767,53.64 C65.927767,53.64 60.7513786,55.4581818 60.7695829,59.8218182 C60.7695829,61.2763636 63.1643495,64 64.4201165,65.64 L62.536466,67.7963636 C62.536466,67.7963636 65.048,66.9963636 65.8803107,66.0036364 C65.8803107,66.0036364 65.1210097,63 65.8803107,60.5490909 C66.3694757,58.9636364 67.7055534,58.3672727 69.1657476,58.3672727 C69.1657476,58.3672727 67.7055534,59.4581818 69.1657476,62.0036364 C70.312,64 73.5463301,66.3672727 73.5463301,66.3672727 L72.6446602,67.7927273 C73.6905076,67.2664047 74.6172491,66.5325819 75.3679223,65.6363636 C75.3679223,65.6363636 73.8821748,62.9890909 74.6378252,60.1818182 C74.9773204,58.9163636 77.7005825,58.5636364 78.6533592,57.6363636 C79.6061359,56.7090909 79.3834563,55.4545455 79.3834563,54.7272727 L65.927767,53.64 Z" id="路径" fill="#562511"></path>
                <path d="M84.8737864,40.9090909 C84.8737864,40.9090909 83.8808544,43.4545455 81.223301,43.4545455 C79.5294757,43.4545455 78.0583301,42 76.9376311,40.9781818 C75.816932,39.9563636 73.9113786,39.4654545 73.9113786,39.4654545 C73.9113786,39.4654545 74.3640388,39.6254545 73.9113786,39.4654545 C73.2030657,39.2351877 72.4657289,39.1054288 71.7210874,39.08 C70.6945981,39.1447943 69.6797186,39.3328219 68.6984854,39.64 C68.0761004,39.8337949 67.5125177,40.180139 67.0594175,40.6472727 C66.1175922,41.7672727 64.3909126,43.08 62.5948738,43.08 C59.9373204,43.08 58.9443883,40.5345455 58.9443883,40.5345455 L57.4841942,41.6254545 C57.4841942,41.6254545 60.039534,46.7163636 61.8647767,47.4436364 C63.0438835,47.9127273 64.8289709,46.8690909 65.9460194,45.9709091 C65.7707961,46.92 65.6247767,47.9090909 65.5152621,48.8981818 C65.2844499,50.7405688 64.9184213,52.5636318 64.4201165,54.3527273 C64.4201165,54.3527273 68.7057864,55.8072727 72.0861359,55.8072727 C74.5632183,55.8424932 77.029414,55.4739949 79.3871068,54.7163636 C79.2691095,52.6429769 79.0252985,50.5786 78.6570097,48.5345455 C78.5255922,47.8654545 78.3722718,47.2181818 78.208,46.6 C79.3213981,47.4218182 80.8801553,48.2290909 81.9424466,47.8072727 C83.7676893,47.08 86.3230291,41.9890909 86.3230291,41.9890909 L84.8737864,40.9090909 Z" id="路径" fill="#FFD31A"></path>
                <path d="M70.5383301,38.4763636 L70.6149903,40.0727273 C70.6149903,40.0727273 72.0204272,40.7709091 73.192233,40.0727273 L73.192233,38.44 L70.5383301,38.4763636 Z" id="路径" fill="#F7C394"></path>
                <path d="M57.2761165,39.3745455 C57.7616311,39.3745455 58.2471456,40.4654545 58.2471456,40.4654545 L58.2471456,40.8290909 L57.7616311,40.8290909 L57.2761165,39.8581818 C57.2761165,39.8581818 56.7869515,39.3745455 57.2761165,39.3745455 Z" id="路径" fill="#FFD8B1"></path>
                <path d="M84.7825243,41.2727273 C84.7825243,41.2727273 85.8776699,40.1818182 88.0679612,40.1818182 C90.2582524,40.1818182 88.4330097,41.2727273 87.7029126,41.2727273 C86.9487156,41.3063805 86.2623955,41.7165795 85.8776699,42.3636364 C85.4980194,42.9890909 84.7825243,41.2727273 84.7825243,41.2727273 Z" id="路径" fill="#FFD8B1"></path>
                <path d="M86.487301,39.8181818 C85.9981359,39.8181818 85.5126214,40.9090909 85.5126214,40.9090909 L85.5126214,41.2727273 L85.9981359,41.2727273 L86.487301,40.3018182 C86.487301,40.3018182 86.9728155,39.8181818 86.487301,39.8181818 Z" id="路径" fill="#FFD8B1"></path>
                <path d="M75.6453592,32.6545455 C75.6453592,32.6545455 73.9332816,31.8654545 73.455068,31.6 C72.3380194,31 70.3448544,31.0581818 69.3957282,32.6036364 C69.1289446,33.115204 68.8960333,33.6436044 68.6984854,34.1854545 C68.9677193,34.1448603 69.2221118,34.3201743 69.2789126,34.5854545 C69.4064689,34.1703347 69.586806,33.7731725 69.815534,33.4036364 C69.7209125,33.4009234 69.6270198,33.4208763 69.5417476,33.4618182 L69.0306796,34.0945455 L70.1258252,32.4727273 L71.7867961,31.7163636 L73.568233,32.1054545 L75.1963495,33.1963636 C75.1963495,33.1963636 74.6779806,33.56 74.2873786,33.7890909 C74.5377333,34.3814686 74.6440513,35.024385 74.5976699,35.6654545 C74.7007741,35.5570108 74.8470139,35.4999532 74.9966282,35.5097952 C75.1462425,35.5196371 75.2836799,35.5953556 75.3715728,35.7163636 L75.3715728,35.7345455 C75.5431456,34.8763636 75.6672621,33.7527273 75.3496699,33.0072727 C75.3314175,32.9563636 75.6453592,32.6545455 75.6453592,32.6545455 Z" id="路径" fill="#633B17"></path>
                <path d="M69.1036893,35.1890909 C69.1480643,34.9852169 69.2028934,34.7837408 69.2679612,34.5854545 C69.2111603,34.3201743 68.9567679,34.1448603 68.687534,34.1854545 C68.6283754,34.1949699 68.5707042,34.2120821 68.5159612,34.2363636 C67.7238058,34.5636364 68.2093204,36.1490909 68.8408544,36.6 C68.9023874,36.1252456 68.990132,35.6542287 69.1036893,35.1890909 Z" id="路径" fill="#F7C394"></path>
                <path d="M74.5940194,35.6763636 C74.5801039,35.9087396 74.5483739,36.1397157 74.4991068,36.3672727 C74.3923599,36.8581993 74.2035563,37.3277676 73.9405825,37.7563636 C74.688932,37.7563636 75.959301,36.4181818 75.3788738,35.7454545 L75.3788738,35.7272727 C75.2912308,35.6023839 75.1513692,35.5239288 74.9987223,35.5140275 C74.8460754,35.5041261 74.6971811,35.5638513 74.5940194,35.6763636 L74.5940194,35.6763636 Z" id="路径" fill="#F7C394"></path>
                <path d="M74.4991068,36.3636364 C74.5483739,36.1360793 74.5801039,35.9051032 74.5940194,35.6727273 C74.6404008,35.0316577 74.5340828,34.3887414 74.2837282,33.7963636 C74.1048544,33.9090909 73.9551845,34.0036364 73.8894757,34.0363636 C73.0452087,34.3602517 72.0997508,34.2908839 71.312233,33.8472727 C70.8528228,33.5802236 70.3358093,33.4268418 69.8045825,33.4 C69.5758546,33.7695361 69.3955174,34.1666983 69.2679612,34.5818182 C69.2028934,34.7801044 69.1480643,34.9815805 69.1036893,35.1854545 C68.990132,35.6505924 68.9023874,36.1216092 68.8408544,36.5963636 C68.7703807,37.0460473 68.8143111,37.506158 68.9686214,37.9345455 C69.2774537,38.6967924 69.9754016,39.2335238 70.7938641,39.3381818 C71.9912233,39.6 73.2177864,38.9309091 73.951534,37.7527273 C74.2106772,37.3234191 74.3957647,36.8538863 74.4991068,36.3636364 L74.4991068,36.3636364 Z" id="路径" fill="#FFD8B1"></path>
                <path d="M71.312233,33.8509091 C72.0997508,34.2945203 73.0452087,34.363888 73.8894757,34.04 C73.9551845,34.0072727 74.1048544,33.9127273 74.2837282,33.8 C74.6743301,33.5527273 75.192699,33.2072727 75.192699,33.2072727 L73.5645825,32.1163636 L71.7831456,31.7272727 L70.1221748,32.4836364 L69.0270291,34.1054545 L69.5380971,33.4727273 C69.6233693,33.4317854 69.717262,33.4118325 69.8118835,33.4145455 C70.3396991,33.439202 70.8540194,33.5887876 71.312233,33.8509091 Z" id="路径" fill="#633B17"></path>
                <g id="编组" opacity="0.5" transform="translate(167.922330, 49.090909)" fill="#AAD5FF">
                    <path d="M4.28932039,8.72727273 C1.92039415,8.72727273 0,6.81430757 0,4.45454545 C0,2.09478334 1.92039415,0.181818182 4.28932039,0.181818182 C6.65824663,0.181818182 8.57864078,2.09478334 8.57864078,4.45454545 C8.57662795,6.81347655 6.65741238,8.72526768 4.28932039,8.72727273 Z M4.28932039,2 C2.92844787,2 1.82524272,3.09893743 1.82524272,4.45454545 C1.82524272,5.81015348 2.92844787,6.90909091 4.28932039,6.90909091 C5.65019291,6.90909091 6.75339806,5.81015348 6.75339806,4.45454545 C6.75138765,3.09976782 5.6493593,2.00200263 4.28932039,2 Z" id="形状"></path>
                </g>
                <polygon id="路径" fill="#AAD5FF" opacity="0.5" points="125.394175 38 122.473786 38 122.473786 35.0909091 120.648544 35.0909091 120.648544 38 117.728155 38 117.728155 39.8181818 120.648544 39.8181818 120.648544 42.7272727 122.473786 42.7272727 122.473786 39.8181818 125.394175 39.8181818"></polygon>
                <polygon id="路径" fill="#AAD5FF" opacity="0.5" points="179.786408 139.454545 176.866019 139.454545 176.866019 136.545455 175.040777 136.545455 175.040777 139.454545 172.120388 139.454545 172.120388 141.272727 175.040777 141.272727 175.040777 144.181818 176.866019 144.181818 176.866019 141.272727 179.786408 141.272727"></polygon>
                <polygon id="路径" fill="#AAD5FF" opacity="0.5" points="15.4013981 94.3054545 14.1127767 93.0218182 12.0466019 95.0763636 9.98042718 93.0218182 8.69180583 94.3054545 10.7579806 96.3636364 8.69180583 98.4218182 9.98042718 99.7054545 12.0466019 97.6509091 14.1127767 99.7054545 15.4013981 98.4218182 13.3352233 96.3636364"></polygon>
                <g id="编组" opacity="0.5" transform="translate(43.440777, 0.000000)" fill="#AAD5FF">
                    <path d="M10.0096311,8.18181818 L0.211728155,8.18181818 L5.11067961,0.0509090909 L10.0096311,8.18181818 Z M3.43875728,6.36363636 L6.78260194,6.36363636 L5.11067961,3.58545455 L3.43875728,6.36363636 Z" id="形状"></path>
                </g>
            </g>
        </g>
        <rect id="矩形" fill-opacity="0" fill="#D8D8D8" x="0" y="0" width="203" height="172"></rect>
    </g>
</svg>