<?xml version="1.0" encoding="UTF-8"?>
<svg width="32px" height="32px" viewBox="0 0 32 32" version="1.1" xmlns="http://www.w3.org/2000/svg" xmlns:xlink="http://www.w3.org/1999/xlink">
    <!-- Generator: sketchtool 55.1 (78136) - https://sketchapp.com -->
    <title>B9012FCA-E6D1-42AB-A11F-0F1A87375164</title>
    <desc>Created with sketchtool.</desc>
    <g id="Symbols" stroke="none" stroke-width="1" fill="none" fill-rule="evenodd" fill-opacity="0.7">
        <g id="icon/history/reguler" fill="#000000">
            <path d="M23,5 L28,5 C29.1045695,5 30,5.8954305 30,7 L30,26 C30,27.1045695 29.1045695,28 28,28 L4,28 C2.8954305,28 2,27.1045695 2,26 L2,7 C2,5.8954305 2.8954305,5 4,5 L9,5 L9,3 L11,3 L11,5 L21,5 L21,3 L23,3 L23,5 Z M23,7 L23,9 L21,9 L21,7 L11,7 L11,9 L9,9 L9,7 L4,7 L4,26 L28,26 L28,7 L23,7 Z M4,12 L28,12 L28,14 L4,14 L4,12 Z M15.824,16.432 L16.88,16.432 L16.88,25 L15.476,25 L15.476,18.124 C14.96,18.592 14.312,18.94 13.52,19.168 L13.52,17.776 C13.904,17.68 14.312,17.512 14.744,17.272 C15.176,17.008 15.536,16.732 15.824,16.432 Z" id="蒙版"></path>
        </g>
    </g>
</svg>