<?xml version="1.0" encoding="UTF-8"?>
<svg width="32px" height="32px" viewBox="0 0 32 32" version="1.1" xmlns="http://www.w3.org/2000/svg" xmlns:xlink="http://www.w3.org/1999/xlink">
    <!-- Generator: Sketch 55.2 (78181) - https://sketchapp.com -->
    <title>icon/history/selected</title>
    <desc>Created with Sketch.</desc>
    <g id="icon/history/selected" stroke="none" stroke-width="1" fill="none" fill-rule="evenodd">
        <path d="M30,12 L2,12 L2,7 C2,5.8954305 2.8954305,5 4,5 L9,5 L9,3 L11,3 L11,5 L21,5 L21,3 L23,3 L23,5 L28,5 C29.1045695,5 30,5.8954305 30,7 L30,12 Z M30,14 L30,26 C30,27.1045695 29.1045695,28 28,28 L4,28 C2.8954305,28 2,27.1045695 2,26 L2,14 L30,14 Z M16.304,16.432 C16.016,16.732 15.656,17.008 15.224,17.272 C14.792,17.512 14.384,17.68 14,17.776 L14,19.168 C14.792,18.94 15.44,18.592 15.956,18.124 L15.956,25 L17.36,25 L17.36,16.432 L16.304,16.432 Z" id="蒙版" fill="#72B976"></path>
    </g>
</svg>