<?xml version="1.0" encoding="UTF-8"?>
<svg width="32px" height="32px" viewBox="0 0 32 32" version="1.1" xmlns="http://www.w3.org/2000/svg" xmlns:xlink="http://www.w3.org/1999/xlink">
    <!-- Generator: Sketch 55.2 (78181) - https://sketchapp.com -->
    <title>icon/home/reguler</title>
    <desc>Created with Sketch.</desc>
    <g id="icon/home/reguler" stroke="none" stroke-width="1" fill="none" fill-rule="evenodd" fill-opacity="0.7">
        <path d="M20,28 L26.000149,28 L26.000149,14.1715729 L25.9505682,14.0375023 L25.9206214,13.899779 L16.0208153,4 L6.12132034,13.8994949 L6.07044981,14.040119 L5.99994519,14.1708597 L5.99994519,28 L12,28 L12,21 C12,19.8954305 12.8954305,19 14,19 L18,19 C19.1045695,19 20,19.8954305 20,21 L20,28 Z M28,14.1715729 L28,28 C28,29.1045695 27.1045695,30 26,30 L6,30 C4.8954305,30 4,29.1045695 4,28 L4,14.1715729 C4,13.8285761 4.08634272,13.5057458 4.23847876,13.2236314 C4.33502176,12.9541046 4.4912311,12.7011571 4.70710678,12.4852814 L14.6066017,2.58578644 C15.3876503,1.80473785 16.6539803,1.80473785 17.4350288,2.58578644 L27.3345238,12.4852814 C27.6158156,12.7665732 27.7958012,13.1108086 27.8744805,13.4726498 C27.9556375,13.6902174 28,13.9257144 28,14.1715729 Z M14,21 L14,28 L18,28 L18,21 L14,21 Z" id="蒙版" fill="#000000"></path>
    </g>
</svg>