<?xml version="1.0" encoding="UTF-8"?>
<svg width="32px" height="32px" viewBox="0 0 32 32" version="1.1" xmlns="http://www.w3.org/2000/svg" xmlns:xlink="http://www.w3.org/1999/xlink">
    <!-- Generator: sketchtool 55.1 (78136) - https://sketchapp.com -->
    <title>C552BA62-7073-45F8-9063-B6B5E2D4B9F0</title>
    <desc>Created with sketchtool.</desc>
    <g id="Symbols" stroke="none" stroke-width="1" fill="none" fill-rule="evenodd">
        <g id="icon/home/selected" fill="#72B976">
            <path d="M20,30 L20,21 C20,19.8954305 19.1045695,19 18,19 L14,19 C12.8954305,19 12,19.8954305 12,21 L12,30 L6,30 C4.8954305,30 4,29.1045695 4,28 L4,14.1715729 C4,13.8285761 4.08634272,13.5057458 4.23847876,13.2236314 C4.33502176,12.9541046 4.4912311,12.7011571 4.70710678,12.4852814 L14.6066017,2.58578644 C15.3876503,1.80473785 16.6539803,1.80473785 17.4350288,2.58578644 L27.3345238,12.4852814 C27.6158156,12.7665732 27.7958012,13.1108086 27.8744805,13.4726498 C27.9556375,13.6902174 28,13.9257144 28,14.1715729 L28,28 C28,29.1045695 27.1045695,30 26,30 L20,30 Z" id="蒙版"></path>
        </g>
    </g>
</svg>