<?xml version="1.0" encoding="utf-8"?>
<!-- Generator: Adobe Illustrator 23.0.3, SVG Export Plug-In . SVG Version: 6.00 Build 0)  -->
<svg version="1.1" id="图层_1" xmlns="http://www.w3.org/2000/svg" xmlns:xlink="http://www.w3.org/1999/xlink" x="0px" y="0px"
	 viewBox="0 0 32 32" style="enable-background:new 0 0 32 32;" xml:space="preserve">
<style type="text/css">
	.st0{fill-rule:evenodd;clip-rule:evenodd;fill:#CECFD3;fill-opacity:0.7;}
</style>
<title>icon/home/reguler</title>
<desc>Created with Sketch.</desc>
<g>
	<path id="蒙版" class="st0" d="M20,28h6V14.2l0-0.1l0-0.1L16,4l-9.9,9.9L6.1,14L6,14.2V28h6v-7c0-1.1,0.9-2,2-2h4
		c1.1,0,2,0.9,2,2V28z M28,14.2V28c0,1.1-0.9,2-2,2H6c-1.1,0-2-0.9-2-2V14.2c0-0.3,0.1-0.7,0.2-0.9c0.1-0.3,0.3-0.5,0.5-0.7l9.9-9.9
		c0.8-0.8,2-0.8,2.8,0l9.9,9.9c0.3,0.3,0.5,0.6,0.5,1C28,13.7,28,13.9,28,14.2z M14,21v7h4v-7H14z"/>
</g>
</svg>
