<svg width="288" height="207" xmlns="http://www.w3.org/2000/svg"><g fill-rule="nonzero" fill="none"><path d="M272.572 196.29c.434-.944.485-2.086.607-3.102.244-1.962.403-3.934.542-5.906.4-5.515.61-11.04.628-16.576 0-4.483.108-9.236-.909-13.633-.536-2.31-2.085-3.998-3.757-5.617-.952-.925-1.885-1.782-3.122-2.297-2.034-.844-4.313-1.278-6.473-1.59-3.956-.572-7.954-.433-11.934-.528-4.747-.115-9.493-.44-14.267-.403a63.22 63.22 0 0 0-12.782 1.264c-1.885.406-4.184.735-5.764 1.93-1.41 1.071-2.512 2.711-3.641 4.066-2.373 2.84-2.445 6.132-2.712 9.683-.34 4.34-.414 8.697-.32 13.047.089 4.15.34 8.297.794 12.423.187 1.694.404 3.388.678 5.082.217 1.413.275 3.15.892 4.448 1.526 3.225 5.93 4.249 9.063 4.679 4.102.564 8.218 1.024 12.348 1.379 4.492.38 8.998.633 13.5.89 4.276.241 8.568.512 12.85.258 6.693-.4 16.095-1.897 17.322-9.879.637-4.16.492-8.568.61-12.769.126-4.465.153-8.934 0-13.402-.132-3.896-.166-7.928-.847-11.773-.475-2.684-1.061-5.878-2.567-8.206-2.275-3.516-5.455-4.136-9.34-4.72-4.58-.688-9.195-1.109-13.823-1.26-9.412-.308-18.81.461-28.141 1.556-3.489.406-6.591.637-9.104 3.33-2.512 2.693-3.709 5.529-4.183 9.147-1.214 9.263-1.357 18.742-1.146 28.072.047 2.13.124 4.259.23 6.386.095 1.854-.078 4.107.505 5.885 1.035 3.154 4.276 4.662 7.26 5.373 8.662 2.057 17.782 3.29 26.692 3.263a86.11 86.11 0 0 0 12.928-1.033c3.984-.617 8.178-1.2 11.745-3.171 2.8-1.549 4.774-3.388 5.73-6.519.288-.938-1.184-1.355-1.472-.406-1.017 3.293-3.624 5.082-6.662 6.437-1.794.792-3.828 1.094-5.74 1.477-2.16.433-4.337.793-6.523 1.064-8.05.992-16.173.718-24.195-.404a124.175 124.175 0 0 1-12.361-2.242c-1.651-.41-3.34-1.017-4.577-2.223-1.6-1.575-1.577-3.469-1.696-5.566a230.443 230.443 0 0 1-.139-24.63c.204-4.19.377-8.47 1.079-12.623.57-3.364 2.329-6.827 5.326-8.697 1.597-.993 3.502-1.077 5.32-1.294 2.268-.271 4.536-.525 6.811-.749 4.164-.413 8.334-.732 12.514-.888 8.403-.361 16.82.131 25.123 1.47 1.987.34 3.649.651 5.16 2.095a8.967 8.967 0 0 1 2.354 3.81 34.046 34.046 0 0 1 1.729 8.254c.6 8.098.742 16.224.424 24.338-.072 2.1-.177 4.205-.255 6.305-.064 1.786-.023 3.66-.549 5.384-1.173 3.862-4.821 5.25-8.398 6.193-7.693 2.032-15.956 1.063-23.79.6-7.918-.468-16.01-.871-23.822-2.311a10.284 10.284 0 0 1-4.374-1.975c-1.668-1.247-1.827-2.71-2.15-4.638-.576-3.426-.949-6.881-1.21-10.344-.62-7.727-.574-15.494.136-23.213.17-1.752.234-3.548 1.156-5.082.868-1.457 2.194-2.833 3.306-4.11 1.397-1.602 3.132-1.999 5.126-2.48a50.115 50.115 0 0 1 7.005-1.168c8.11-.786 16.274.057 24.411.132 3.852.037 7.673.169 11.433 1.097 1.749.434 3.329.885 4.699 2.097a20.845 20.845 0 0 1 3.082 3.27c2.007 2.771 1.729 7.321 1.834 10.567a181.316 181.316 0 0 1-1.071 27.333c-.089.735-.231 2.117-.424 2.544-.407.885.908 1.66 1.315.77l-.027.03z" fill="#FC0"/><path d="M.475 41.37a16.467 16.467 0 0 0-.153 7.114c.251 1.284 2.21.739 1.963-.542a13.982 13.982 0 0 1 .153-6.02c.308-1.27-1.655-1.813-1.963-.542v-.01zM3.885 34.641l-.101 21.263c0 1.31 2.034 1.31 2.034 0L5.92 34.64c0-1.308-2.035-1.308-2.035 0zM6.845 40.746a10.04 10.04 0 0 0 1.451 4.147c.699 1.101 2.462.081 1.76-1.016a7.687 7.687 0 0 1-1.176-3.12 1.05 1.05 0 0 0-1.018-1.017c-.495 0-1.088.47-1.017 1.016v-.01zM11.483 41.35a16.197 16.197 0 0 1 5.808-1.04c.76 0 .855-.092 1.187.677.295.704.2 1.016 0 1.694a13.547 13.547 0 0 1-1.282 2.754c-.678 1.128 1.089 2.155 1.757 1.016 1.078-1.826 3.197-5.803.939-7.53-2.2-1.695-6.652-.34-8.948.46-1.227.437-.698 2.402.54 1.961v.007z" fill="#FC3"/><path d="M8.029 49.046a161.59 161.59 0 0 1 15.711-2.324c1.292-.125 1.305-2.158 0-2.032a167.184 167.184 0 0 0-16.254 2.398c-1.281.254-.739 2.213.543 1.958z" fill="#FC3"/><path d="M14.447 34.495a167.042 167.042 0 0 1-6.035 21.849c-.434 1.237 1.532 1.768 1.963.539a167.574 167.574 0 0 0 6.035-21.849c.26-1.277-1.695-1.823-1.963-.539z" fill="#FC3"/><path d="M13.074 50.303c3.358 2.05 6.817 3.931 10.364 5.634 1.177.563 2.207-1.192 1.017-1.758a116.66 116.66 0 0 1-10.364-5.614c-1.123-.677-2.146 1.074-1.017 1.755v-.017zM31.246 40.394c5.26-.353 10.526-.547 15.797-.583 1.308 0 1.312-2.033 0-2.033-5.271.039-10.537.233-15.797.583-1.298.088-1.308 2.12 0 2.033zM33.884 42.335c-.069 1.31.012 2.622.24 3.913.218 1.287 2.181.739 1.96-.542a14.97 14.97 0 0 1-.166-3.37c.078-1.309-1.956-1.305-2.034 0zM43.154 41.43a12.623 12.623 0 0 0-1.234 4.544c-.106 1.304 1.929 1.297 2.034 0a9.89 9.89 0 0 1 .956-3.52c.57-1.173-1.187-2.202-1.756-1.017v-.007z" fill="#FC3"/><path d="M28.615 48.894a170.132 170.132 0 0 1 20.052-1.016c1.308 0 1.308-2.033 0-2.033a170.132 170.132 0 0 0-20.052 1.016c-1.288.143-1.302 2.179 0 2.033z" fill="#FC3"/><path d="M38.292 35.447a1032.88 1032.88 0 0 1-.624 21.168c-.05 1.308 1.983 1.304 2.034 0 .267-7.054.475-14.11.624-21.168.024-1.307-2.01-1.307-2.034 0zM34.454 48.562l-5.425 6.776c-.81 1.016.62 2.46 1.438 1.436l5.424-6.776c.81-1.016-.62-2.46-1.437-1.44v.004z" fill="#FC3"/><path d="M39.672 50.832a75.86 75.86 0 0 1 8.676 4.333c1.136.657 2.16-1.098 1.017-1.755a79.971 79.971 0 0 0-9.154-4.54c-1.204-.505-1.73 1.46-.54 1.962zM88.738 40.272a52.985 52.985 0 0 1 13.867-.607c1.306.112 1.299-1.92 0-2.032a55.19 55.19 0 0 0-14.406.677c-1.288.23-.742 2.189.54 1.962zM85.541 49.02l20.22-1.606c1.296-.106 1.306-2.138 0-2.033l-20.203 1.606c-1.298.101-1.309 2.134 0 2.032h-.017z" fill="#FC3"/><path d="M90.444 41.708a53.641 53.641 0 0 0-.848 13.298c.081 1.297 2.116 1.307 2.034 0a51.552 51.552 0 0 1 .773-12.756c.241-1.28-1.719-1.83-1.96-.542zM98.157 39.676c.338 5.64.35 11.297.034 16.939-.071 1.304 1.963 1.301 2.034 0 .316-5.642.304-11.298-.034-16.94-.078-1.3-2.112-1.31-2.034 0zM112.295 42.24l9.297-1.016c1.288-.142 1.302-2.175 0-2.033l-9.297 1.016c-1.285.143-1.302 2.179 0 2.033z" fill="#FC3"/><path d="M117.133 37.49a920.87 920.87 0 0 1-.057 18.532c-.02 1.311 2.014 1.311 2.034 0 .081-6.177.1-12.354.058-18.532 0-1.307-2.035-1.31-2.035 0z" fill="#FC3"/><path d="M112.997 50.517l8.07-3.527c1.196-.522.162-2.273-1.018-1.755l-8.07 3.527c-1.196.522-.158 2.273 1.018 1.755zM123.297 36.416a29.023 29.023 0 0 0-.166 6.752c.126 1.291 2.16 1.305 2.034 0a27.012 27.012 0 0 1 .095-6.213c.173-1.277-1.786-1.833-1.963-.539z" fill="#FC3"/><path d="M124.748 36.965a8.918 8.918 0 0 1 2.635-.962c.678-.129 2.288-.38 2.953 0 .963.562.339 2.314.224 3.158l-.217 1.5c-.045.292-.451 1.38-.061 1.017l1.23-.16-.112-.074.367 1.392.04-.098c.522-1.186-1.227-2.222-1.756-1.016l-.044.098a1.05 1.05 0 0 0 .366 1.39l.112.074c.401.226.904.161 1.234-.16.39-.372.414-.789.498-1.307.156-.996.289-2 .434-2.999.194-1.334.638-2.903-.4-4.004-1.983-2.09-6.441-.728-8.53.406-1.153.62-.125 2.372 1.017 1.755l.01-.01z" fill="#FC3"/><path d="M124.931 40.563c1.9-.438 3.836-.707 5.785-.803 1.305-.064 1.312-2.097 0-2.032a36.181 36.181 0 0 0-6.307.874c-1.278.294-.735 2.253.54 1.961h-.018zM124.04 44.595l6.879-.698c1.288-.132 1.302-2.165 0-2.033l-6.88.698c-1.291.132-1.305 2.168 0 2.033zM122.073 48.369a33.495 33.495 0 0 1 12.518-.678c1.292.173 1.278-1.86 0-2.032a35.015 35.015 0 0 0-13.057.735c-1.271.315-.732 2.276.54 1.961v.014z" fill="#FC3"/><path d="M126.569 47.353a29.05 29.05 0 0 0-.339 7.453c.112 1.29 2.146 1.304 2.034 0a27.11 27.11 0 0 1 .258-6.911c.22-1.281-1.743-1.83-1.96-.542h.007z" fill="#FC3"/><path d="M128.76 52.21a14.773 14.773 0 0 1 4.597-.338c1.305.108 1.298-1.928 0-2.033-1.724-.134-3.458 0-5.14.397-1.275.298-.733 2.256.542 1.961v.014zM122.5 49.985a31.566 31.566 0 0 0-.63 6.335c0 1.308 2.034 1.311 2.034 0-.01-1.945.176-3.886.556-5.793.258-1.277-1.695-1.826-1.96-.542z" fill="#FC3"/><path d="M123.948 55.341a55.513 55.513 0 0 0 13.064 2.29c1.305.072 1.302-1.961 0-2.032a52.927 52.927 0 0 1-12.521-2.22c-1.258-.379-1.794 1.583-.543 1.962zM141.022 44.005l-.288 8.561c-.05 1.447-.84 4.513 1.12 5.015 1.267.338 1.81-1.637.538-1.962l.265.24.034-.985.027-1.308.112-3.293.21-6.258c.04-1.307-1.994-1.304-2.034 0l.016-.01zM143 40.73a58.556 58.556 0 0 1 7.295-.658c1.31-.04 1.312-2.073 0-2.033a64.025 64.025 0 0 0-7.838.729c-1.289.2-.74 2.158.542 1.961z" fill="#FC3"/><path d="M143.569 46.367c1.864-.583 8.198-1.996 8.415.986.095 1.314-.444 2.974-.644 4.295l-.678 4.493c-.194 1.277 1.766 1.83 1.963.538l1.068-7.06c.22-1.46.878-3.405-.214-4.672-.966-1.121-2.797-1.23-4.167-1.331-2.127-.133-4.26.14-6.286.803-1.244.39-.712 2.354.543 1.958v-.01z" fill="#FC3"/><path d="M144.908 39.818c-.287 3.724-.41 7.451-.366 11.18.017 1.308 2.051 1.311 2.034 0-.043-3.734.08-7.46.366-11.18.102-1.304-1.932-1.298-2.034 0zM148.4 41.22l-.475 9.571c-.064 1.308 1.97 1.305 2.035 0l.474-9.57c.068-1.308-1.966-1.305-2.034 0z" fill="#FC3"/><path d="M144.752 54.304a5.795 5.795 0 0 1 4.482.072c1.207.504 1.733-1.46.543-1.959a7.464 7.464 0 0 0-5.567-.07c-1.207.463-.679 2.432.542 1.957zM142.955 57.435a28.287 28.287 0 0 1 9.07.16c1.281.23 1.83-1.732.539-1.962a31.48 31.48 0 0 0-10.148-.16c-1.292.187-.743 2.148.54 1.962zM155.184 37.02l.204 5.596c.044 1.305 2.082 1.311 2.034 0l-.203-5.597c-.048-1.304-2.082-1.31-2.035 0z" fill="#FC3"/><path d="M157.097 37.961c1.881-1.297 4.092-1.263 6.218-.616.386.118 1.017.233 1.329.498.678.565.481.9.285 1.768-.282 1.247-.733 2.484-1.092 3.727-.36 1.243 1.59 1.795 1.96.539l.912-3.09c.25-.85.678-1.803.528-2.71-.183-1.18-1.149-1.806-2.176-2.24-2.872-1.213-6.337-1.44-8.992.39-1.071.738-.054 2.5 1.017 1.755l.01-.02z" fill="#FC3"/><path d="M157.175 41.03c2.15-.388 4.332-.565 6.516-.528 1.312 0 1.312-2.033 0-2.033-2.372-.03-4.74.174-7.072.607-1.285.237-.74 2.195.542 1.961l.014-.006zM156.378 44.232a19.947 19.947 0 0 1 7.12-.413c1.298.149 1.288-1.884 0-2.033a21.65 21.65 0 0 0-7.656.485c-1.271.308-.732 2.266.543 1.961h-.007zM154.923 45.811l-.257 4.787c-.068 1.308 1.966 1.304 2.034 0l.258-4.787c.07-1.308-1.963-1.304-2.035 0z" fill="#FC3"/><path d="M156.907 48.311a30.137 30.137 0 0 1 8.71.075c1.281.2 1.83-1.758.542-1.962a32.077 32.077 0 0 0-9.252-.145c-1.278.169-1.295 2.202 0 2.032zM158.293 53.024a62.525 62.525 0 0 0 7.07-.624c1.291-.186.742-2.144-.543-1.958a58.396 58.396 0 0 1-6.527.55c-1.305.036-1.312 2.07 0 2.032z" fill="#FC3"/><path d="M160.179 44.815l-.509 11.01c-.061 1.308 1.973 1.305 2.034 0l.505-11.01c.061-1.308-1.973-1.308-2.034 0h.004z" fill="#FC3"/><path d="M155.94 57.492a42.663 42.663 0 0 1 12.321-.213c1.296.163 1.285-1.873 0-2.033a44.489 44.489 0 0 0-12.863.285c-1.288.217-.742 2.175.542 1.961zM172.832 42.742a47.3 47.3 0 0 0-.617 7.92c0 1.308 2.034 1.312 2.034 0a44.149 44.149 0 0 1 .553-7.382c.206-1.28-1.753-1.83-1.96-.538h-.01z" fill="#FC3"/><path d="M175.158 45.53c.59-.319 1.474-.925 2.173-.82 1.142.17.678 1.247.573 1.945a32.716 32.716 0 0 1-.844 3.726c-.356 1.26 1.607 1.8 1.963.539.374-1.31.67-2.642.885-3.988.156-1.016.447-2.195-.146-3.123-1.282-2.006-4.021-.915-5.632-.044-1.15.62-.125 2.371 1.017 1.755l.01.01z" fill="#FC3"/><path d="M173.232 51.425c1.567.115 3.143.05 4.696-.193 1.291-.197.742-2.155-.54-1.962a17.983 17.983 0 0 1-4.156.122c-1.309-.102-1.302 1.931 0 2.033zM181.328 41.844c2.713-.657 5.557-.715 8.337-.644a7.01 7.01 0 0 1 2.17.295c.895.308.678.4.427 1.243-.386 1.325-.512 2.805-.76 4.164-.233 1.28 1.727 1.83 1.96.542.34-1.836.91-3.767 1.018-5.627.081-1.444-1.109-2.013-2.374-2.372-1.715-.467-3.62-.339-5.38-.281-2 .021-3.993.256-5.944.701-1.271.309-.732 2.27.54 1.962l.006.017z" fill="#FC3"/><path d="M186.509 41.393a42.088 42.088 0 0 1-.638 5.048c-.24 1.277 1.72 1.826 1.963.542.347-1.848.583-3.714.71-5.59.087-1.304-1.947-1.3-2.035 0z" fill="#FC3"/><path d="M182.67 48.606a193.8 193.8 0 0 1 9.853-.339c1.31 0 1.313-2.032 0-2.032a205.06 205.06 0 0 0-9.852.338c-1.299.078-1.309 2.111 0 2.033z" fill="#FC3"/><path d="M181.552 42.07c-1.166 4.327-3.607 12.404 1.716 14.962 2.485 1.192 5.394.372 7.818-.57 2.353-.914 4.34-2.235 5.808-4.312.756-1.07-1.017-2.087-1.756-1.017-1.19 1.694-2.92 2.745-4.825 3.466-1.906.722-4.5 1.613-6.442.461-1.943-1.152-1.875-3.622-1.661-5.624.259-2.303.7-4.583 1.319-6.816.339-1.264-1.621-1.803-1.963-.539l-.014-.01zM206.218 46.888c.423-2.195 2.498 0 3.614.116a2.946 2.946 0 0 0 3.051-2.138c.397-1.25-1.566-1.786-1.96-.539-.434 1.355-1.532.224-2.19-.142a2.874 2.874 0 0 0-1.81-.315 3.145 3.145 0 0 0-2.672 2.476c-.244 1.28 1.716 1.826 1.963.542h.004zM70.22 41.336a37.795 37.795 0 0 1 11.005-.058c1.282.183 1.834-1.775.54-1.958a41.154 41.154 0 0 0-12.084.054c-1.292.2-.743 2.158.539 1.962z" fill="#FC3"/><path d="M74.509 41.03a84.67 84.67 0 0 1 .247 7.762 82.217 82.217 0 0 1-.156 3.88c-.054.823.183 3.489-1.068 2.317-.956-.895-2.397.542-1.437 1.436.823.773 1.97 1.582 3.14 1.037 1.284-.6 1.21-2.32 1.304-3.503a82.287 82.287 0 0 0 0-12.928c-.098-1.298-2.132-1.308-2.034 0h.004zM57.807 44.46l9.297-1.017c1.288-.142 1.302-2.175 0-2.033l-9.297 1.017c-1.285.142-1.302 2.178 0 2.032z" fill="#FC3"/><path d="M62.645 37.677c.046 6.18.026 12.356-.057 18.531l1.997-.267-.132-.905c-.19-1.287-2.15-.742-1.964.542l.133.901c.173 1.163 1.983.84 2-.27.081-6.176.1-12.353.058-18.532 0-1.308-2.035-1.311-2.035 0z" fill="#FC3"/><path d="M58.509 52.316l8.07-3.524c1.196-.521.162-2.276-1.018-1.755l-8.07 3.524c-1.196.525-.158 2.277 1.018 1.755zM7.36 1.575c.22 2.376.808 4.703 1.743 6.898.53 1.193 2.282.16 1.757-1.016a19.699 19.699 0 0 1-1.465-5.871c-.142-1.284-2.18-1.298-2.034 0v-.01zM12.524 1.318c.12 1.96.046 3.928-.22 5.874-.18 1.278 1.78 1.833 1.963.54.309-2.124.407-4.272.292-6.414-.075-1.301-2.113-1.311-2.035 0z" fill="#FC3"/><path d="M4.584 10.2a59.818 59.818 0 0 1 14.87-1.015c1.31.074 1.306-1.959 0-2.033a62.091 62.091 0 0 0-15.406 1.07c-1.281.251-.739 2.213.543 1.962l-.007.017zM5.9 14.44A79.623 79.623 0 0 1 19.19 12.5c1.299-.078 1.309-2.11 0-2.032a83.501 83.501 0 0 0-13.83 2.009c-1.275.298-.735 2.256.54 1.961zM1.268 18.969a126.407 126.407 0 0 1 22.014-3.29c1.302-.078 1.309-2.11 0-2.033A129.393 129.393 0 0 0 .726 17.011c-1.272.304-.733 2.266.542 1.958z" fill="#FC3"/><path d="M13.687 8.483a84.339 84.339 0 0 1-8.08 14.765c-.738 1.08 1.018 2.097 1.757 1.016a84.18 84.18 0 0 0 8.08-14.74c.505-1.193-1.248-2.23-1.757-1.017v-.024zM14.277 17.654a224.674 224.674 0 0 1 10.405 5.35c1.15.63 2.177-1.125 1.018-1.755a228.272 228.272 0 0 0-10.41-5.35c-1.172-.565-2.206 1.19-1.016 1.755h.003z" fill="#FC3"/><path d="M9.168 18.901a62.73 62.73 0 0 0 .101 7.223c.092 1.298 2.126 1.308 2.035 0a62.73 62.73 0 0 1-.102-7.23c.058-1.307-1.977-1.304-2.034 0v.007zM16.593 19.152l-.505 6.972c-.092 1.304 1.942 1.301 2.034 0l.492-6.979c.091-1.304-1.943-1.301-2.035 0l.014.007zM29.751 10.133l-3.434 15.364c-.285 1.274 1.695 1.82 1.963.539l3.434-15.36c.285-1.278-1.675-1.82-1.963-.543z" fill="#FC3"/><path d="M29.161 12.017a100.923 100.923 0 0 1 15.386-1.355c1.309-.02 1.312-2.053 0-2.033a104.19 104.19 0 0 0-15.935 1.443c-1.288.214-.742 2.175.543 1.958l.006-.013zM30.985 18.23a8.706 8.706 0 0 1 2.848-.501c1.384.03 1.418.86 1.095 1.978a7.928 7.928 0 0 1-2.739 3.991c-1.017.824.43 2.253 1.44 1.437 1.96-1.59 4.002-4.608 3.557-7.284-.498-2.985-4.746-2.22-6.73-1.579-1.237.403-.708 2.372.543 1.958h-.014z" fill="#FC3"/><path d="M36.698 5.15a100.697 100.697 0 0 0 4.808 13.971c1.492 3.408 3.543 6.6 7.147 7.989.45.125.928-.067 1.166-.468l1.295-1.772c.777-1.057-.99-2.07-1.756-1.016l-1.295 1.772 1.15-.468c-3.483-1.355-5.154-5.081-6.442-8.32a107.658 107.658 0 0 1-4.069-12.224c-.339-1.26-2.305-.725-1.963.542l-.04-.006z" fill="#FC3"/><path d="M44.754 14.985a38.137 38.137 0 0 0-6.062 9.679c-.516 1.189 1.237 2.226 1.756 1.016a36.466 36.466 0 0 1 5.744-9.259c.844-.99-.587-2.432-1.438-1.436zM42.228 4.94l3.618 2.649c1.054.772 2.071-.99 1.017-1.755l-3.611-2.65c-1.054-.775-2.072.986-1.017 1.756h-.007zM57.044 3.937c0 2.476.055 4.953.194 7.426.07 1.243-.19 3.222 1.356 3.632 1.268.339 1.807-1.62.542-1.958.244.064.041-3.92.027-4.37a129.7 129.7 0 0 1-.07-4.744c0-1.308-2.035-1.31-2.035 0l-.014.014z" fill="#FC3"/><path d="M59.031 7.66a18.26 18.26 0 0 1 9.544-1.525c.851.099 2.035.19 2.41 1.142.204.515-.05 1.542-.135 2.01a17.029 17.029 0 0 1-1.525 4.593c-.573 1.169 1.18 2.202 1.756 1.017 1.326-2.71 3.81-8.579-.078-10.276-3.889-1.697-9.317-.356-13 1.284-1.19.535-.158 2.287 1.018 1.755h.01z" fill="#FC3"/><path d="M59.34 11.556a27.244 27.244 0 0 1 9.974-1.355c1.31.06 1.306-1.972 0-2.033a28.9 28.9 0 0 0-10.51 1.44c-1.238.41-.709 2.372.54 1.962l-.004-.014zM58.54 16.001a36.872 36.872 0 0 1 12.232-2.253c1.309-.017 1.312-2.05 0-2.033A38.477 38.477 0 0 0 58 14.043c-1.22.444-.695 2.409.54 1.958zM54.664 22.059a236.372 236.372 0 0 1 19.282-1.745c1.302-.068 1.312-2.1 0-2.033-6.449.328-12.876.91-19.282 1.745-1.278.17-1.295 2.205 0 2.033z" fill="#FC3"/><path d="M63.381 15.893c.258 3.407.258 6.83 0 10.238-.102 1.304 1.933 1.297 2.034 0 .258-3.408.258-6.83 0-10.238-.095-1.298-2.132-1.308-2.034 0zM133.252 9.218a39.93 39.93 0 0 1 8.411-1.389c1.302-.07 1.309-2.103 0-2.032-3.027.162-6.03.647-8.954 1.446-1.261.34-.725 2.307.543 1.962v.013z" fill="#FC3"/><path d="M136.825 5.224c-.21 2.823-.31 5.647-.302 8.47 0 1.308 2.035 1.311 2.035 0 0-2.832.1-5.656.301-8.47.095-1.304-1.939-1.297-2.034 0z" fill="#FC3"/><path d="M129.865 15.96c4.546-.725 9.09-1.436 13.663-1.988 1.282-.153 1.299-2.189 0-2.033-4.747.576-9.493 1.308-14.206 2.06-1.288.206-.742 2.165.543 1.961z" fill="#FC3"/><path d="M136.16 14.317l-.108 5.082c-.02.996-.41 2.609.234 3.473.243.386.706.575 1.15.467.428-.114.764-.445.884-.87a.996.996 0 0 0-.26-.99l-.069-.074c-.908-.946-2.346.494-1.44 1.44l.07.07-.26-.989-.055.13.712-.712-.122.034 1.15.467c-.255-.339.047-2.69.06-3.388l.089-4.133c.03-1.308-2.004-1.308-2.034 0v-.007z" fill="#FC3"/><path d="M137.825 19.162a12.214 12.214 0 0 1 4.323-.749c1.309 0 1.309-2.033 0-2.033a13.829 13.829 0 0 0-4.855.82c-1.22.44-.695 2.406.542 1.962h-.01zM132.326 15.815a49.428 49.428 0 0 0-1.316 10.068c-.037 1.312 1.997 1.308 2.035 0 .085-3.21.501-6.404 1.24-9.53.302-1.27-1.657-1.816-1.959-.538z" fill="#FC3"/><path d="M133.638 22.438a51.312 51.312 0 0 0 19.393 4.71c1.31.053 1.306-1.98 0-2.034a48.744 48.744 0 0 1-18.366-4.43c-1.183-.546-2.217 1.205-1.017 1.754h-.01zM145.813 10.594a7.754 7.754 0 0 1 2.279-.942c.678-.146 2.108-.417 2.732 0 1.404.894-.895 3.686-1.64 4.496-.886.962.549 2.405 1.437 1.44 1.468-1.593 3.98-5.048 2.061-7.139-1.864-2.032-5.93-.755-7.896.407-1.126.678-.105 2.422 1.017 1.755l.01-.017z" fill="#FC3"/><path d="M150.645 14.836c-1.313-1.108-3.974-2.013-5.67-1.244-1.766.807-1.945 4.12-1.169 5.624 2.265 4.404 8.476 3.005 11.233.03.888-.958-.55-2.401-1.441-1.44-1.651 1.786-4.608 3.05-6.896 1.6a2.796 2.796 0 0 1-1.2-1.382c-.18-.515-.177-2.162.362-2.565.54-.403 2.753.318 3.343.813.993.84 2.438-.59 1.438-1.436zM79.88 11.217v9.757c0 1.308 2.033 1.312 2.033 0v-9.757c0-1.307-2.034-1.31-2.034 0z" fill="#FC3"/><path d="M83.463 11.12c.75-1.048 2.068.053 2.444.771.434.824.427 1.847.417 2.755a41.079 41.079 0 0 1-.644 6.538c-.217 1.278 1.743 1.827 1.963.54.36-2.04.586-4.101.678-6.17.068-1.606.088-3.337-.702-4.79-1.217-2.237-4.36-2.853-5.923-.678-.766 1.067 1.017 2.083 1.757 1.016l.01.017z" fill="#FC3"/><path d="M81.622 15.832l4.638-.498c1.288-.136 1.302-2.172 0-2.033l-4.638.498c-1.289.139-1.302 2.172 0 2.033zM81.167 19.29l4.632-.789c1.285-.217.739-2.178-.543-1.958l-4.628.79c-1.288.216-.742 2.178.54 1.958zM80.384 23.295l6.368-.833c1.281-.166 1.295-2.202 0-2.033l-6.368.833c-1.278.166-1.295 2.203 0 2.033zM92.45 7.531l4.408-.975c1.397-.309 2.886-.834 4.313-.814 1.312 0 1.312-2.032 0-2.032-1.42-.02-2.844.444-4.221.745L91.895 5.57c-1.278.284-.74 2.242.539 1.961h.017zM90.013 13.25c3.967-.452 7.946-.752 11.938-.901 1.305-.051 1.312-2.084 0-2.033-3.99.151-7.969.452-11.938.901-1.288.146-1.302 2.179 0 2.033zM88.969 17.603a202.078 202.078 0 0 1 15.362-1.209c1.302-.05 1.309-2.084 0-2.033-5.135.206-10.256.609-15.362 1.21-1.285.152-1.299 2.188 0 2.032zM90.65 22.116l10.51-.83c1.296-.102 1.31-2.134 0-2.033l-10.51.83c-1.295.102-1.305 2.135 0 2.033z" fill="#FC3"/><path d="M95.197 6.644l-.03 17.566c0 1.308 2.034 1.308 2.034 0l.03-17.566c0-1.308-2.034-1.311-2.034 0zM90.63 13.745c0 2.114-.339 4.506 0 6.59.183 1.151 1.441 2.15 2.41 1.036.855-.986-.579-2.43-1.437-1.437l-.142.163.719-.298h.108l.468.606c-.339-.945-.102-2.334-.098-3.316v-3.354c0-1.308-2.035-1.312-2.035 0l.007.01zM98.998 13.172a29.856 29.856 0 0 1-.512 5.465c-.244 1.277 1.715 1.826 1.96.538.38-1.978.576-3.988.586-6.003 0-1.308-2.034-1.308-2.034 0z" fill="#FC3"/><path d="M88.877 27.14a95.788 95.788 0 0 1 14.58-.759c1.308.031 1.308-2.002 0-2.032a95.788 95.788 0 0 0-14.58.759c-1.281.166-1.298 2.198 0 2.032zM110.892 3.937c0 2.476.057 4.953.196 7.426.068 1.243-.19 3.222 1.356 3.632 1.265.339 1.804-1.62.54-1.958.247.064.044-3.92.027-4.37a146.92 146.92 0 0 1-.072-4.744c0-1.308-2.034-1.31-2.034 0l-.013.014z" fill="#FC3"/><path d="M112.882 7.66a18.253 18.253 0 0 1 9.54-1.525c.855.099 2.035.19 2.414 1.142.204.515-.054 1.542-.135 2.01a17.27 17.27 0 0 1-1.526 4.593c-.576 1.169 1.18 2.202 1.756 1.017 1.323-2.71 3.808-8.579-.081-10.276-3.889-1.697-9.324-.366-12.996 1.274-1.193.535-.159 2.287 1.018 1.755l.01.01z" fill="#FC3"/><path d="M113.183 11.515a27.343 27.343 0 0 1 9.985-1.314c1.31.071 1.306-1.962 0-2.033a28.941 28.941 0 0 0-10.51 1.38c-1.24.402-.709 2.37.54 1.957l-.015.01zM112.39 16.001a36.855 36.855 0 0 1 12.233-2.253c1.305-.017 1.309-2.05 0-2.033a38.497 38.497 0 0 0-12.758 2.328c-1.218.444-.678 2.409.542 1.958h-.017zM108.515 22.059a236.372 236.372 0 0 1 19.281-1.745c1.302-.068 1.31-2.1 0-2.033-6.453.319-12.88.9-19.281 1.745-1.282.17-1.299 2.205 0 2.033z" fill="#FC3"/><path d="M117.218 15.893c.26 3.407.26 6.83 0 10.238-.098 1.304 1.936 1.297 2.034 0 .26-3.408.26-6.83 0-10.238-.098-1.298-2.132-1.308-2.034 0zM162.382 6.417c-1.122 4.153-2.329 8.849-2.183 13.185.054 1.528.488 3.05 1.817 3.954 1.533 1.033 3.567 1.396 5.364 1.623 1.295.162 1.281-1.87 0-2.033-1.577-.2-4.37-.59-4.967-2.307-.434-1.25-.122-2.809.02-4.066.391-3.31 1.03-6.586 1.912-9.8.34-1.268-1.62-1.806-1.963-.543v-.013z" fill="#FC3"/><path d="M166.729 9.215l-2.695 16.445c-.21 1.28 1.749 1.833 1.963.542l2.692-16.448c.21-1.278-1.75-1.83-1.96-.539z" fill="#FC3"/><path d="M157.775 13.66a88.117 88.117 0 0 1 10.825-.166c1.31.06 1.306-1.972 0-2.033a88.117 88.117 0 0 0-10.825.166c-1.295.098-1.309 2.135 0 2.033zM172.286 7.49c1.355-.07 2.713-.07 4.068 0 .224 0 1.53-.023 1.607.133.106.22-.742 1.399-.84 1.558-1.038 1.633-2.96 3.1-2.747 5.238.214 2.138 2.15 3.073 3.486 4.428 1.173 1.189 1.77 2.71.315 4.004-.678.593-3.37 1.694-3.295 2.494-.122-1.291-2.16-1.305-2.035 0 .34 3.747 4.994.339 6.374-.742 2.825-2.202 2.11-5.42-.356-7.586-.695-.61-1.695-1.175-2.16-2.005-.677-1.237.245-2.243.994-3.185.932-1.169 2.065-2.622 2.407-4.11.258-1.12-.339-1.846-1.434-2.06-2.051-.396-4.299-.294-6.374-.196-1.302.061-1.309 2.094 0 2.033l-.01-.003z" fill="#FC3"/><path d="M168.59 18.152c5.081-.286 10.173-.315 15.257-.088 1.309.058 1.306-1.975 0-2.033a151.037 151.037 0 0 0-15.257.089c-1.302.07-1.312 2.107 0 2.032zM190.404 7.49c2.411-.084 4.849-.206 7.26-.186 1.298 0 2.742.109 3.956.64 1.356.597 1.675 1.898 1.814 3.26.25 2.49-.414 5.007-.943 7.423-.403 1.826-1.315 8.402-4.468 6.027-1.044-.786-2.062.979-1.017 1.755a4.071 4.071 0 0 0 4.251.284c1.356-.806 1.814-2.24 2.218-3.68.973-3.448 2.153-7.286 2.054-10.901-.081-3.05-1.017-5.523-4.163-6.376-3.455-.946-7.395-.4-10.951-.278-1.306.047-1.312 2.08 0 2.033h-.01z" fill="#FC3"/><path d="M192.615 14.144c1.636.322 3.216.883 4.689 1.664 1.156.613 2.187-1.142 1.017-1.755a18.975 18.975 0 0 0-5.187-1.87c-1.278-.254-1.824 1.694-.543 1.961h.024zM190.004 22.523a73.656 73.656 0 0 1 9.494-3.835c1.237-.407.708-2.372-.543-1.962a77.726 77.726 0 0 0-9.971 4.042c-1.177.572-.146 2.327 1.017 1.755h.003zM208.96 11.217a60.733 60.733 0 0 0-.111 6.098c.04 1.305 2.074 1.312 2.034 0a60.733 60.733 0 0 1 .112-6.098c.088-1.304-1.946-1.297-2.035 0zM212.147 4.475l-.217 20.257c0 1.31 2.035 1.31 2.035 0l.217-20.257c.017-1.307-2.018-1.307-2.035 0zM215.012 13.44l1.126 4.594c.312 1.267 2.275.732 1.963-.542l-1.132-4.58c-.312-1.271-2.275-.733-1.963.538l.006-.01zM219.498 5.177c-.699 2.883-1.75 7.033 1.627 8.571 2.275 1.016 6.266.833 7.819-1.321.766-1.064-.997-2.08-1.757-1.017-.87 1.21-4.34 1.037-5.465.383-1.74-1.016-.634-4.54-.264-6.064.308-1.27-1.652-1.813-1.96-.542v-.01z" fill="#FC3"/><path d="M221.553 5.753c1.376-.678 5.706-1.976 6.513.203.298.81-.153 1.904-.38 2.683-.34 1.138-.678 2.277-1.017 3.415-.377 1.257 1.586 1.792 1.963.542.729-2.436 2.865-6.647.39-8.754-2.241-1.904-6.147-1.017-8.476.156-1.17.582-.143 2.337 1.017 1.755h-.01z" fill="#FC3"/><path d="M217.87 10.621a90.49 90.49 0 0 1 15.729-.925c1.312.037 1.309-1.995 0-2.033a93.307 93.307 0 0 0-16.274.996c-1.292.19-.743 2.152.539 1.962h.007z" fill="#FC3"/><path d="M223.54 6.085l-.177 5.81c-.037 1.308 1.997 1.308 2.034 0l.177-5.82c.037-1.308-1.997-1.308-2.035 0v.01zM219.2 15.578l-.197 6.82c-.04 1.31 1.993 1.307 2.034 0l.204-6.83c.04-1.308-1.994-1.308-2.035 0l-.006.01z" fill="#FC3"/><path d="M221.037 16.977c2.243-.533 4.55-.751 6.852-.647 1.217.084 1.838.437 1.76 1.799-.061 1.094-.62 2.419-.936 3.459l1.862-.244-.099-.18c-.129-1.29-2.163-1.3-2.034 0 .011.429.14.846.373 1.206a1.017 1.017 0 0 0 1.861-.244c.705-2.34 2.424-6.132-.678-7.42-2.773-1.151-6.69-.297-9.493.31-1.278.274-.736 2.235.542 1.96h-.01z" fill="#FC3"/><path d="M223.712 18.498a9.105 9.105 0 0 1-3.926 6.755c-1.071.739-.06 2.497 1.017 1.755l.617-.42c1.075-.732.058-2.497-1.017-1.755l-.617.42 1.017 1.755a11.314 11.314 0 0 0 4.933-8.51c.112-1.301-1.922-1.294-2.034 0h.01z" fill="#FC3"/><path d="M224.767 23.77l5.831 2.513c1.187.512 2.224-1.236 1.017-1.755l-5.828-2.513c-1.19-.512-2.227 1.24-1.017 1.754h-.003zM239.895 23.322c1.309 0 1.309-2.033 0-2.033s-1.312 2.033 0 2.033z" fill="#FC3"/><path d="M239.827 22.418a4.819 4.819 0 0 1-1.407 1.602 1.043 1.043 0 0 0-.366 1.393c.284.483.906.645 1.39.362a7.042 7.042 0 0 0 2.14-2.33c.64-1.146-1.116-2.172-1.757-1.017v-.01z" fill="#FC3"/><path d="M225.73 150.451c-6.903 0-12.5 5.597-12.5 12.5v25.835c0 6.904 5.597 12.5 12.5 12.5h32.994c6.904 0 12.5-5.596 12.5-12.5v-25.835c0-6.903-5.596-12.5-12.5-12.5h-32.993z" fill="#FFF"/><path d="M259.729 202.125h-35.003c-6.809-.008-12.327-5.521-12.334-12.325v-27.862c.007-6.804 5.525-12.318 12.334-12.325h35.003c6.81.007 12.327 5.52 12.335 12.325V189.8c-.008 6.804-5.526 12.317-12.335 12.325zm-35.003-51.835c-6.435.008-11.649 5.218-11.656 11.648V189.8c.007 6.43 5.221 11.64 11.656 11.647h35.003c6.435-.007 11.649-5.218 11.656-11.647v-27.862c-.007-6.43-5.221-11.64-11.656-11.648h-35.003z" fill="#FC0"/><g fill="#FC0"><path d="M164.274 84.26c.875 16.413 7.913 34.878 23.016 43.238.967.534 1.831-.94.864-1.477-14.557-8.063-21.322-25.95-22.165-41.76-.059-1.095-1.773-1.102-1.715 0z"/><path d="M186.982 126.329a56.791 56.791 0 0 1-3.844 5.361c-.39.51.137 1.33.74 1.286a137.837 137.837 0 0 0 15.3-1.99c1.083-.205.627-1.853-.453-1.648a133.025 133.025 0 0 1-14.846 1.928l.74 1.29a57.284 57.284 0 0 0 3.844-5.365c.569-.944-.912-1.806-1.481-.862z"/><path d="M199.589 129.536c-1.046-5.231-2.472-10.364-3.837-15.517a.867.867 0 0 0-1.567-.205c-1.275 2.435-2.99 4.599-4.241 7.047-.497.982.98 1.847 1.481.865 1.252-2.448 2.966-4.612 4.241-7.047l-1.567-.205c1.372 5.153 2.791 10.285 3.837 15.514.216 1.08 1.869.622 1.653-.452z"/><path d="M178.805 81.61c-.09 7.294.497 14.646 2.28 21.737 1.577 6.268 4.114 13.066 8.4 18.04.384.445 1.059.247 1.347-.174a.857.857 0 0 0-.134-1.025l-.199-.202c-.771-.79-1.981.42-1.21 1.207l.196.202-.134-1.026 1.347-.174c-4.2-4.89-6.603-11.681-8.095-17.84-1.642-6.78-2.166-13.769-2.084-20.727 0-1.101-1.714-1.101-1.714 0v-.017z"/><path d="M179.6 83.31a294.935 294.935 0 0 0-12.559 11.133c-.322.301.161.783.484.482A299.684 299.684 0 0 1 180.094 83.8c.343-.284-.148-.766-.484-.486l-.01-.003zM179.686 86.6c-4.18 3.128-9 6.387-11.791 10.897-.233.376.36.718.59.342 2.715-4.39 7.48-7.608 11.547-10.652.343-.263 0-.858-.343-.591l-.003.003zM179.771 91.007a33.639 33.639 0 0 0-11.472 9.916c-.264.342.343.684.594.342a32.89 32.89 0 0 1 11.225-9.67c.39-.202.044-.793-.343-.592l-.004.004zM179.555 94.85a49.93 49.93 0 0 0-9.438 9.178c-.271.342.209.83.483.485a49.248 49.248 0 0 1 9.302-9.071c.343-.26 0-.855-.343-.592h-.004zM180.306 97.818a52.858 52.858 0 0 0-9.209 8.648c-.281.342.202.82.487.482a52.399 52.399 0 0 1 9.065-8.548c.343-.257 0-.852-.343-.589v.007zM180.89 101.49a33.437 33.437 0 0 0-8.572 8.669c-.25.366.343.708.593.342a32.554 32.554 0 0 1 8.338-8.422c.36-.25.017-.841-.343-.592l-.017.004zM181.53 104.61a25.782 25.782 0 0 0-7.817 8.09c-.233.372.36.717.593.341a25.022 25.022 0 0 1 7.57-7.847c.367-.24.025-.831-.342-.588l-.004.003zM182.94 106.87a37.985 37.985 0 0 0-7.39 8.462c-.24.37.344.715.594.342a37.373 37.373 0 0 1 7.279-8.326c.343-.284-.151-.766-.484-.482v.003zM184.04 108.832a63.64 63.64 0 0 0-7.032 8.439c-.254.362.343.704.593.342a62.34 62.34 0 0 1 6.943-8.302.341.341 0 0 0-.002-.484.344.344 0 0 0-.485.002l-.017.003zM184.31 111.39a28.082 28.082 0 0 0-4.967 8.206c-.168.407.494.585.662.181a26.9 26.9 0 0 1 4.8-7.905c.291-.342-.192-.814-.487-.486l-.007.004zM185.669 112.662a51.24 51.24 0 0 0-4.917 9.475c-.161.41.5.588.662.184a50.407 50.407 0 0 1 4.851-9.314c.244-.366-.343-.711-.593-.342l-.003-.003zM186.186 114.915c-1.172 2.76-2.633 5.389-3.799 8.152-.171.403.49.581.662.181 1.142-2.708 2.578-5.283 3.727-7.988.171-.403-.418-.752-.59-.342v-.003zM187.561 117.524a28.148 28.148 0 0 1-3.953 6.746c-.267.342.213.831.483.483a29.285 29.285 0 0 0 4.115-7.048c.164-.407-.497-.584-.662-.181h.017zM190.835 119.873c-.438.034-.833-.492-1.292-.342-.46.15-.62.937-.813 1.296-.86 1.607-1.855 3.14-2.54 4.835-.165.41.5.588.661.181a36 36 0 0 1 2.157-4.072c.202-.342.549-1.42.977-1.474.25-.03.566.284.868.26.435-.038.438-.722 0-.684h-.018zM191.785 120.407c-1.399 3.549-3.319 6.838-5.054 10.258-.198.393.395.738.594.342 1.762-3.444 3.699-6.798 5.122-10.406.161-.406-.5-.584-.662-.18v-.014zM195.522 117.527l-4.114 8.296a671.823 671.823 0 0 0-2.057 4.147c-.422.88-.751 1.502-.58 2.476.076.43.738.246.662-.185-.24-1.347 1.111-3.156 1.684-4.315l1.614-3.262 3.37-6.811c.196-.393-.394-.742-.589-.342l.01-.004zM196.026 120.085c-1.55 3.672-2.95 7.4-4.203 11.181-.14.421.521.599.658.185 1.257-3.782 2.66-7.51 4.207-11.185.171-.403-.49-.581-.662-.18zM197.01 123.518l-2.475 7.239c-.14.417.521.595.662.181l2.475-7.239c.144-.417-.518-.598-.662-.18zM177.838 80.137c-3.86 4.062-7.543 8.32-11.606 12.18-.319.304.168.786.487.482 4.056-3.857 7.745-8.114 11.602-12.177.305-.321-.178-.803-.483-.485zM174.21 81.487c-2.986 2.736-5.965 5.345-8.533 8.48-.275.342.205.824.486.483 2.565-3.136 5.548-5.759 8.534-8.477.326-.298-.161-.78-.487-.486zM170.813 81.747a38.455 38.455 0 0 0-5.12 4.887c-.287.341.196.817.484.482a38.858 38.858 0 0 1 5.112-4.9c.343-.277-.14-.76-.483-.486l.007.017z"/></g><g fill="#FC0"><path d="M276.578 137.207c-.312.94-.974 2.468-1.759 3.174a3.737 3.737 0 0 1-2.632.904 5.803 5.803 0 0 1 2.164 2.376 7.569 7.569 0 0 1 .56 3.185 9.356 9.356 0 0 1 1.542-2.659 3.658 3.658 0 0 1 2.696-1.307c-2.57-1.582-2.445-2.166-2.57-5.66M279.744 145.623a4.688 4.688 0 0 1-.985 1.78 2.093 2.093 0 0 1-1.477.509c.52.318.94.777 1.212 1.324.232.567.34 1.177.316 1.789a5.242 5.242 0 0 1 .866-1.494c.375-.45.925-.717 1.511-.733-1.443-.886-1.358-1.216-1.443-3.175M202.48 157.156c-.102.985-.408 2.621-1.02 3.48a3.736 3.736 0 0 1-2.377 1.464 5.804 5.804 0 0 1 2.632 1.826 7.607 7.607 0 0 1 1.247 2.988 9.371 9.371 0 0 1 .92-2.937 3.664 3.664 0 0 1 2.344-1.867c-2.857-.978-2.867-1.575-3.753-4.954M199.932 164.388a4.168 4.168 0 0 1-.482 1.721 1.848 1.848 0 0 1-1.161.734c.51.167.963.474 1.307.886.312.438.526.938.629 1.466.065-.504.213-.993.438-1.45a1.8 1.8 0 0 1 1.148-.933c-1.413-.468-1.423-.764-1.879-2.424M285.684 182.423c-.367.92-1.114 2.407-1.936 3.055a3.737 3.737 0 0 1-2.683.75c.9.62 1.606 1.482 2.038 2.486a7.592 7.592 0 0 1 .377 3.211 9.251 9.251 0 0 1 1.698-2.566 3.675 3.675 0 0 1 2.768-1.151c-2.476-1.725-2.32-2.302-2.242-5.796"/></g></g></svg>